<?xml version="1.0" encoding="iso-8859-1"?>
<!-- Generator: Adobe Illustrator 16.0.0, SVG Export Plug-In . SVG Version: 6.00 Build 0)  -->
<!DOCTYPE svg PUBLIC "-//W3C//DTD SVG 1.1//EN" "http://www.w3.org/Graphics/SVG/1.1/DTD/svg11.dtd">
<svg version="1.1" id="Capa_1" xmlns="http://www.w3.org/2000/svg" xmlns:xlink="http://www.w3.org/1999/xlink" x="0px" y="0px"
	 width="344.83px" height="344.83px" viewBox="0 0 344.83 344.83" style="enable-background:new 0 0 344.83 344.83;"
	 xml:space="preserve">
<g>
	<g>
		<path style="fill:#030303;" d="M98.909,154.683h-9.778l-64.39-61.395c-5.85-5.569-15.113-5.352-20.699,0.492
			c-5.572,5.855-5.358,15.118,0.492,20.699l81.822,78.017v22.357h12.554v42.513c0,32.41,29.791,58.685,63.113,58.685h125.708
			c33.324,0,57.101-26.274,57.101-58.685V152.104H98.909V154.683z M281.971,272.177c25.782-9.584,18.309-57.312,17.52-78.457
			c-0.503-13.432,20.322-13.381,20.819,0c1.264,33.753,6.238,84.021-32.799,98.532C274.892,296.942,269.5,276.814,281.971,272.177z"
			/>
		<path style="fill:#030303;" d="M153.367,31.415c-8.143,10.28-10.701,20.133-5.409,32.387c5.721,13.243,19.27,21.757,11.833,37.63
			c-4.14,8.829,8.977,16.56,13.14,7.685c5.544-11.836,5.772-22.546-0.071-34.28c-5.492-11.035-18.601-20.19-8.729-32.661
			C170.15,34.565,159.457,23.723,153.367,31.415z"/>
		<path style="fill:#030303;" d="M206.625,31.415c-8.137,10.28-10.704,20.133-5.409,32.387c5.724,13.243,19.275,21.757,11.837,37.63
			c-4.141,8.829,8.971,16.56,13.134,7.685c5.547-11.836,5.775-22.546-0.068-34.28c-5.489-11.035-18.601-20.19-8.731-32.661
			C223.407,34.565,212.714,23.723,206.625,31.415z"/>
		<path style="fill:#030303;" d="M259.888,31.415c-8.143,10.28-10.704,20.133-5.415,32.387c5.724,13.243,19.27,21.757,11.836,37.63
			c-4.14,8.829,8.978,16.56,13.141,7.685c5.54-11.836,5.77-22.546-0.075-34.28c-5.488-11.035-18.601-20.19-8.726-32.661
			C276.665,34.565,265.978,23.723,259.888,31.415z"/>
	</g>
</g>
<g>
</g>
<g>
</g>
<g>
</g>
<g>
</g>
<g>
</g>
<g>
</g>
<g>
</g>
<g>
</g>
<g>
</g>
<g>
</g>
<g>
</g>
<g>
</g>
<g>
</g>
<g>
</g>
<g>
</g>
</svg>
